<svg xmlns="http://www.w3.org/2000/svg" version="1.1" xmlns:xlink="http://www.w3.org/1999/xlink" xmlns:svgjs="http://svgjs.com/svgjs" width="512" height="512" x="0" y="0" viewBox="0 0 512 512" style="enable-background:new 0 0 512 512" xml:space="preserve" class=""><g><path fill="#69bff5" d="M392 128c-5.473 0-10.941.371-16.348 1.11A120.4 120.4 0 0 0 376 120C376 53.832 322.168 0 256 0a119.875 119.875 0 0 0-79.066 29.734c-19.82 17.375-33.325 40.7-38.528 66.29-.804-.016-1.61-.024-2.406-.024C61.008 96 0 157.012 0 232s61.008 136 136 136h256c66.168 0 120-53.832 120-120s-53.832-120-120-120zm0 0" data-original="#69bff5" class=""></path><path fill="#44aff2" d="M416 336H160c-74.992 0-136-61.012-136-136 0-23.348 5.914-45.34 16.324-64.559C15.438 160.101 0 194.281 0 232c0 74.988 61.008 136 136 136h256c46.406 0 86.742-26.48 106.7-65.125C477.155 323.391 448.022 336 416 336zm0 0" data-original="#44aff2" class=""></path><g fill="#f4f5f7"><path d="M356.438 177.344a8.002 8.002 0 0 0-11.094 2.219l-4.176 6.261C331.313 148.004 296.868 120 256 120c-34.996 0-66.66 20.723-80.676 52.797a8.006 8.006 0 0 0 4.13 10.535c4.05 1.766 8.765-.078 10.534-4.129C201.453 152.957 227.368 136 256 136c34.137 0 62.777 23.887 70.145 55.813l-9.707-6.47a8.002 8.002 0 0 0-11.094 2.22c-2.45 3.675-1.457 8.644 2.219 11.093l23.953 15.969c3.652 2.434 8.68 1.46 11.14-2.188l16-24c2.45-3.675 1.457-8.644-2.219-11.093zM332.828 231.77a8.004 8.004 0 0 0-10.484 4.253A71.9 71.9 0 0 1 256 280c-34.137 0-62.777-23.887-70.145-55.813l9.708 6.47a8.002 8.002 0 0 0 11.093-2.22c2.45-3.675 1.457-8.644-2.219-11.093l-23.953-15.969c-3.668-2.445-8.664-1.45-11.14 2.188l-16 24c-3.125 4.683-.371 11.257 5.18 12.3a8.057 8.057 0 0 0 7.484-2.582c.898-1.023 1.597-2.27 2.351-3.402l2.473-3.703C180.688 267.996 215.132 296 256 296a87.88 87.88 0 0 0 81.082-53.742c1.723-4.07-.184-8.766-4.254-10.488zm0 0" fill="#f4f5f7" data-original="#f4f5f7" class=""></path></g></g></svg>